<?xml version="1.0" encoding="utf-8"?>
<svg width="53.66455px" height="53.664597px" viewBox="0 0 53.66455 53.664597" version="1.1" xmlns:xlink="http://www.w3.org/1999/xlink" xmlns="http://www.w3.org/2000/svg">
  <defs>
    <path d="M0 0L53.6646 0L53.6646 53.6646L0 53.6646L0 0Z" id="path_1" />
    <clipPath id="clip_1">
      <use xlink:href="#path_1" />
    </clipPath>
  </defs>
  <g id="Поиск 2" clip-path="url(#clip_1)">
    <path d="M0 0L53.6646 0L53.6646 53.6646L0 53.6646L0 0Z" id="Поиск-2" fill="none" fill-rule="evenodd" stroke="none" />
    <path d="M22.9191 6.70807C13.9858 6.70807 6.70807 13.9859 6.70807 22.9191C6.70807 31.8523 13.9858 39.1301 22.9191 39.1301C26.7834 39.1301 30.3356 37.765 33.1252 35.4966L44.0934 46.4648C44.514 46.9028 45.1386 47.0793 45.7263 46.9261C46.314 46.7729 46.7729 46.3139 46.9261 45.7263C47.0793 45.1385 46.9028 44.514 46.4648 44.0934L35.4966 33.1251C37.765 30.3356 39.1302 26.7833 39.1302 22.9191C39.1302 13.9859 31.8524 6.70807 22.9191 6.70807L22.9191 6.70807ZM22.9192 10.0621C30.0398 10.0621 35.7761 15.7986 35.7761 22.9192C35.7761 26.3879 34.408 29.5218 32.1885 31.8305C32.0517 31.931 31.931 32.0517 31.8305 32.1885C29.5218 34.4079 26.3879 35.7761 22.9192 35.7761C15.7985 35.7761 10.0621 30.0398 10.0621 22.9192C10.0621 15.7986 15.7985 10.0621 22.9192 10.0621L22.9192 10.0621Z" id="Фигура" fill="#FFFFFF" fill-rule="evenodd" stroke="none" />
  </g>
</svg>