<?xml version="1.0" encoding="utf-8"?>
<svg width="48px" height="48px" viewBox="0 0 48 48" version="1.1" xmlns:xlink="http://www.w3.org/1999/xlink" xmlns="http://www.w3.org/2000/svg">
  <defs>
    <path d="M0 0L48 0L48 48L0 48L0 0Z" id="path_1" />
    <clipPath id="clip_1">
      <use xlink:href="#path_1" />
    </clipPath>
  </defs>
  <g clip-path="url(#clip_1)">
    <path d="M0 0L48 0L48 48L0 48L0 0Z" fill="none" fill-rule="evenodd" stroke="none" />
    <path d="M23.9766 3.97852C23.1489 3.99145 22.4881 4.67232 22.5 5.5L22.5 8.5C22.4924 9.04095 22.7766 9.54412 23.2438 9.81683C23.7111 10.0895 24.2889 10.0895 24.7562 9.81683C25.2234 9.54412 25.5076 9.04095 25.5 8.5L25.5 5.5C25.5058 5.09438 25.3471 4.70369 25.0601 4.41703C24.7731 4.13037 24.3822 3.97217 23.9766 3.97852L23.9766 3.97852ZM10.9023 9.4043C10.2917 9.40445 9.74208 9.77472 9.51256 10.3406C9.28304 10.9065 9.41942 11.555 9.85742 11.9805L11.9785 14.1016C12.3578 14.4809 12.9106 14.629 13.4288 14.4901C13.9469 14.3512 14.3515 13.9464 14.4902 13.4282C14.6289 12.9101 14.4806 12.3573 14.1012 11.9781L11.9805 9.85742C11.6972 9.56675 11.3082 9.40327 10.9023 9.4043L10.9023 9.4043ZM37.0508 9.4043C36.6612 9.41565 36.2914 9.57816 36.0195 9.85742L33.8984 11.9785C33.3124 12.5648 33.3125 13.5151 33.8986 14.1012C34.4847 14.6874 35.4349 14.6877 36.0213 14.1017L38.1426 11.9805C38.5873 11.5491 38.721 10.8888 38.4793 10.3183C38.2375 9.74791 37.67 9.38477 37.0508 9.4043L37.0508 9.4043ZM24 13C17.9426 13 13 17.9426 13 24C13 30.0574 17.9426 35 24 35C30.0574 35 35 30.0574 35 24C35 17.9426 30.0574 13 24 13L24 13ZM24 16C28.4361 16 32 19.564 32 24C32 28.436 28.4361 32 24 32C19.564 32 16 28.436 16 24C16 19.564 19.564 16 24 16L24 16ZM5.5 22.5C4.95905 22.4924 4.45588 22.7766 4.18317 23.2438C3.91046 23.7111 3.91046 24.2889 4.18317 24.7562C4.45588 25.2234 4.95905 25.5077 5.5 25.5L8.5 25.5C9.04095 25.5076 9.54412 25.2234 9.81683 24.7562C10.0895 24.2889 10.0895 23.7111 9.81683 23.2438C9.54412 22.7766 9.04095 22.4923 8.5 22.5L5.5 22.5L5.5 22.5ZM39.5 22.5C38.959 22.4924 38.4559 22.7766 38.1832 23.2438C37.9105 23.7111 37.9105 24.2889 38.1832 24.7562C38.4559 25.2234 38.959 25.5077 39.5 25.5L42.5 25.5C43.041 25.5076 43.5441 25.2234 43.8168 24.7562C44.0895 24.2889 44.0895 23.7111 43.8168 23.2438C43.5441 22.7766 43.041 22.4923 42.5 22.5L39.5 22.5L39.5 22.5ZM13.0098 33.4453C12.6202 33.4567 12.2504 33.6192 11.9785 33.8984L9.85742 36.0195C9.47797 36.3987 9.32972 36.9516 9.46852 37.4698C9.60733 37.988 10.0121 38.3927 10.5303 38.5315C11.0485 38.6703 11.6014 38.522 11.9806 38.1425L14.1016 36.0215C14.5462 35.5901 14.68 34.9298 14.4383 34.3593C14.1965 33.7889 13.629 33.4258 13.0098 33.4453L13.0098 33.4453ZM34.9434 33.4453C34.3327 33.4455 33.7831 33.8157 33.5536 34.3816C33.3241 34.9475 33.4604 35.596 33.8984 36.0215L36.0195 38.1426C36.3987 38.522 36.9516 38.6703 37.4698 38.5315C37.988 38.3927 38.3927 37.9879 38.5315 37.4697C38.6703 36.9515 38.522 36.3986 38.1425 36.0194L36.0215 33.8984C35.7382 33.6078 35.3492 33.4443 34.9434 33.4453L34.9434 33.4453ZM23.9766 37.9785C23.1489 37.9914 22.4881 38.6723 22.5 39.5L22.5 42.5C22.4924 43.041 22.7766 43.5441 23.2438 43.8168C23.7111 44.0895 24.2889 44.0895 24.7562 43.8168C25.2234 43.5441 25.5076 43.041 25.5 42.5L25.5 39.5C25.5058 39.0944 25.3471 38.7037 25.0601 38.417C24.7731 38.1304 24.3822 37.9722 23.9766 37.9785L23.9766 37.9785Z" id="sun-svg" fill="#FFFFFF" fill-rule="evenodd" stroke="none" />
  </g>
</svg>